<svg width="28" height="30" viewBox="0 0 28 30" fill="none" xmlns="http://www.w3.org/2000/svg">
<path d="M14.894 0C19.733 0 23.657 3.849 23.657 8.598C23.6554 9.84625 23.3796 11.0789 22.849 12.2088C22.3184 13.3386 21.546 14.3381 20.5865 15.1365C20.9965 15.3365 21.3705 15.5375 21.7085 15.7395C22.4355 16.1745 23.1905 16.714 23.9735 17.358C24.079 17.4438 24.1662 17.5499 24.2301 17.6699C24.294 17.7899 24.3333 17.9215 24.3456 18.057C24.3579 18.1924 24.343 18.3289 24.3017 18.4585C24.2605 18.5881 24.1938 18.7081 24.1055 18.8115C23.9241 19.0221 23.6676 19.1535 23.3907 19.1776C23.1138 19.2017 22.8385 19.1166 22.6235 18.9405C21.9904 18.4109 21.3186 17.9296 20.6135 17.5005C19.9256 17.1022 19.212 16.7499 18.4775 16.446C17.3479 16.9432 16.1267 17.1987 14.8925 17.196C13.5326 17.1989 12.1904 16.8883 10.97 16.2885L10.907 16.3185C7.94149 17.4525 5.77699 19.1295 4.38199 21.3555C2.97949 23.589 2.40649 26.085 2.66299 28.8765C2.67447 29.0127 2.65884 29.1499 2.61701 29.2801C2.57517 29.4102 2.50796 29.5308 2.41926 29.6349C2.33056 29.7389 2.22212 29.8244 2.10021 29.8863C1.9783 29.9482 1.84533 29.9853 1.70899 29.9955C1.43383 30.0223 1.15924 29.939 0.945315 29.7639C0.73139 29.5888 0.595541 29.336 0.567491 29.061C0.271991 25.833 0.946991 22.8915 2.58949 20.274C4.03549 17.97 6.15949 16.179 8.93449 14.9025C8.05166 14.1066 7.3458 13.1341 6.8626 12.0481C6.37941 10.9621 6.12965 9.78666 6.12949 8.598C6.12949 3.849 10.055 0 14.894 0ZM25.7285 21.36C25.924 21.1679 26.187 21.0599 26.4611 21.0591C26.7352 21.0582 26.9988 21.1646 27.1955 21.3555C27.6005 21.7545 27.6005 22.4025 27.1985 22.803L25.4105 24.5715L27.1985 26.3415C27.2944 26.436 27.3706 26.5486 27.4225 26.6729C27.4744 26.7971 27.5009 26.9305 27.5007 27.0651C27.5004 27.1998 27.4733 27.333 27.4209 27.4571C27.3685 27.5811 27.2918 27.6934 27.1955 27.7875C26.9992 27.9788 26.7358 28.0857 26.4617 28.0854C26.1876 28.0852 25.9244 27.9777 25.7285 27.786L23.948 26.0205L22.1675 27.786C21.9924 27.9572 21.7631 28.0619 21.519 28.0819C21.2749 28.1019 21.0316 28.036 20.831 27.8955L20.702 27.7875C20.6056 27.6934 20.529 27.5811 20.4766 27.4571C20.4242 27.333 20.3971 27.1998 20.3968 27.0651C20.3965 26.9305 20.4231 26.7971 20.475 26.6729C20.5269 26.5486 20.603 26.436 20.699 26.3415L22.484 24.5715L20.699 22.8015C20.603 22.707 20.5269 22.5944 20.475 22.4701C20.4231 22.3459 20.3965 22.2125 20.3968 22.0779C20.3971 21.9432 20.4242 21.81 20.4766 21.6859C20.529 21.5619 20.6056 21.4496 20.702 21.3555C20.8985 21.1649 21.1616 21.0585 21.4353 21.059C21.7091 21.0596 21.9718 21.1671 22.1675 21.3585L23.948 23.1225L25.7285 21.36ZM14.894 2.0625C11.2145 2.0625 8.23399 4.9875 8.23399 8.5965C8.23399 12.2055 11.2145 15.132 14.894 15.132C18.572 15.132 21.554 12.207 21.554 8.5965C21.554 4.986 18.572 2.0625 14.894 2.0625Z" fill="#F83232"/>
</svg>
